<?xml version="1.0" standalone="no"?>
 <!DOCTYPE svg PUBLIC "-//W3C//DTD SVG 1.1//EN" 
 "http://www.w3.org/Graphics/SVG/1.1/DTD/svg11.dtd"> 
<svg xmlns="http://www.w3.org/2000/svg" version="1.1" 
    width="41.9989cm" height="29.7002cm" viewBox="0 0 165350 116930 ">
<title>SVG Picture created as tps61165_led_driver-B_Mask.svg date 2015/03/23 19:25:45 </title>
  <desc>Picture generated by PCBNEW </desc>
<g style="fill:#000000; fill-opacity:1;stroke:#000000; stroke-opacity:1;
stroke-linecap:round; stroke-linejoin:round; "
 transform="translate(0 0) scale(1 1)">
</g>
<g style="fill:#000000; fill-opacity:0.0; 
stroke:#000000; stroke-width:59.0551; stroke-opacity:1; 
stroke-linecap:round; stroke-linejoin:round;">
</g>
<g style="fill:#000000; fill-opacity:1.0; 
stroke:#000000; stroke-width:59.0551; stroke-opacity:1; 
stroke-linecap:round; stroke-linejoin:round;">
<polyline style="fill-rule:evenodd;"
points="75046,62769
75046,62250
74605,62250
74605,62769
75046,62769
" /> 
<polyline style="fill-rule:evenodd;"
points="73354,62769
73354,62250
72913,62250
72913,62769
73354,62769
" /> 
<polyline style="fill-rule:evenodd;"
points="70910,61929
69969,61929
69969,62370
70910,62370
70910,61929
" /> 
<polyline style="fill-rule:evenodd;"
points="70910,63129
69969,63129
69969,63570
70910,63570
70910,63129
" /> 
<polyline style="fill-rule:evenodd;"
points="72270,61929
71329,61929
71329,62370
72270,62370
72270,61929
" /> 
<polyline style="fill-rule:evenodd;"
points="72270,63129
71329,63129
71329,63570
72270,63570
72270,63129
" /> 
<polyline style="fill-rule:evenodd;"
points="71940,68640
71940,67699
71499,67699
71499,68640
71940,68640
" /> 
<polyline style="fill-rule:evenodd;"
points="70740,68640
70740,67699
70299,67699
70299,68640
70740,68640
" /> 
<polyline style="fill-rule:evenodd;"
points="71940,69900
71940,68959
71499,68959
71499,69900
71940,69900
" /> 
<polyline style="fill-rule:evenodd;"
points="70740,69900
70740,68959
70299,68959
70299,69900
70740,69900
" /> 
<polyline style="fill-rule:evenodd;"
points="69514,66470
70005,66470
70005,66179
69514,66179
69514,66470
" /> 
<polyline style="fill-rule:evenodd;"
points="69514,65720
70005,65720
70005,65429
69514,65429
69514,65720
" /> 
<polyline style="fill-rule:evenodd;"
points="73101,63620
73101,64939
76978,64939
76978,63620
73101,63620
" /> 
<polyline style="fill-rule:evenodd;"
points="73101,67120
73101,68439
76978,68439
76978,67120
73101,67120
" /> 
<polyline style="fill-rule:evenodd;"
points="71820,66560
71820,66399
71299,66399
71299,66560
71820,66560
" /> 
<polyline style="fill-rule:evenodd;"
points="71820,66190
71820,66029
71299,66029
71299,66190
71820,66190
" /> 
<polyline style="fill-rule:evenodd;"
points="71820,65820
71820,65659
71299,65659
71299,65820
71820,65820
" /> 
<polyline style="fill-rule:evenodd;"
points="70940,65820
70940,65659
70419,65659
70419,65820
70940,65820
" /> 
<polyline style="fill-rule:evenodd;"
points="70940,66190
70940,66029
70419,66029
70419,66190
70940,66190
" /> 
<polyline style="fill-rule:evenodd;"
points="70940,66560
70940,66399
70419,66399
70419,66560
70940,66560
" /> 
<circle cx="67980" cy="70770" r="770.472" /> 
<circle cx="78200" cy="62290" r="770.472" /> 
</g>
<g style="fill:#000000; fill-opacity:1.0; 
stroke:#000000; stroke-width:600; stroke-opacity:1; 
stroke-linecap:round; stroke-linejoin:round;">
<path d="M73960 70370
L73960 69770
" />
<path d="M74960 70270
L74960 69670
" />
<path d="M75960 70370
L75960 69770
" />
<path d="M68800 63280
L68200 63280
" />
<path d="M68800 62180
L68200 62180
" />
</g>
<g style="fill:#000000; fill-opacity:1.0; 
stroke:#000000; stroke-width:59.0551; stroke-opacity:1; 
stroke-linecap:round; stroke-linejoin:round;">
<polyline style="fill-rule:evenodd;"
points="68039,67579
68039,68320
68580,68320
68580,67579
68039,67579
" /> 
<polyline style="fill-rule:evenodd;"
points="69339,67579
69339,68320
69880,68320
69880,67579
69339,67579
" /> 
<polyline style="fill-rule:evenodd;"
points="68039,68639
68039,69380
68580,69380
68580,68639
68039,68639
" /> 
<polyline style="fill-rule:evenodd;"
points="69339,68639
69339,69380
69880,69380
69880,68639
69339,68639
" /> 
<polyline style="fill-rule:evenodd;"
points="68694,66470
69185,66470
69185,66179
68694,66179
68694,66470
" /> 
<polyline style="fill-rule:evenodd;"
points="68694,65720
69185,65720
69185,65429
68694,65429
68694,65720
" /> 
</g> 
</svg>
